<svg xmlns="http://www.w3.org/2000/svg" width="77" height="77" viewBox="0 0 77 77">
  <g id="Self-Directed_icon_3" data-name="Self-Directed icon 3" transform="translate(-1016 -2421)">
    <circle id="Ellipse_804" data-name="Ellipse 804" cx="38.5" cy="38.5" r="38.5" transform="translate(1016 2421)" fill="#4a8b8c"/>
    <g id="noun-data-assessment-4495401" transform="translate(904.499 2413.586)">
      <path id="Path_7474" data-name="Path 7474" d="M159.47,138.215H135.909V111.808h4.532v-2.615a4.915,4.915,0,0,1,.068-.792h-7.156a.854.854,0,0,0-.852.852V140.77a.849.849,0,0,0,.852.852h28.674a.849.849,0,0,0,.852-.852V125.14l-3.407.043Zm2.556-29.815H154.87a4.874,4.874,0,0,1,.068.792v2.615h4.532v5.665l3.407-.051v-8.169a.854.854,0,0,0-.852-.852Z" transform="translate(0 -75.58)" fill="#fff"/>
      <path id="Path_7475" data-name="Path 7475" d="M263.984,30.435V28.944a2.521,2.521,0,1,0-5.043,0v1.491a3.187,3.187,0,0,0-3.024,3.177v2.615h11.091V33.612a3.187,3.187,0,0,0-3.024-3.177Z" transform="translate(-113.773)" fill="#fff"/>
      <path id="Path_7476" data-name="Path 7476" d="M451.216,248.2a1.423,1.423,0,0,1-1.406,1.431l-6.806.094a.565.565,0,0,1-.579-.562v-.17l-1.048.009a9.156,9.156,0,0,0-.017-2.811l1.014-.017V246a.565.565,0,0,1,.562-.579l6.789-.094h.034a1.411,1.411,0,0,1,1.431,1.4Z" transform="translate(-284.726 -201.811)" fill="#fff"/>
      <path id="Path_7477" data-name="Path 7477" d="M268.554,199.278h-5.539v-5.554A6.471,6.471,0,0,1,268.554,199.278Zm-12.854.852a6.473,6.473,0,0,1,5.606-6.406v5.99l-3.32,5.331A6.433,6.433,0,0,1,255.7,200.13Zm6.463,6.452a6.425,6.425,0,0,1-2.744-.619l3.1-4.981h6.036A6.461,6.461,0,0,1,262.163,206.583Z" transform="translate(-113.573 -154.237)" fill="#fff"/>
      <path id="Path_7478" data-name="Path 7478" d="M308.773,383.788v6.287h-3.365v-6.287a.333.333,0,0,1,.332-.332h2.709a.331.331,0,0,1,.324.332Z" transform="translate(-159.397 -329.144)" fill="#fff"/>
      <path id="Path_7479" data-name="Path 7479" d="M226.361,415.3v3.825h-3.373V415.3a.333.333,0,0,1,.332-.332h2.709A.332.332,0,0,1,226.361,415.3Z" transform="translate(-83.417 -358.192)" fill="#fff"/>
      <path id="Path_7480" data-name="Path 7480" d="M390.991,402.969v4.8h-3.373v-4.8a.331.331,0,0,1,.332-.324h2.709a.326.326,0,0,1,.332.324Z" transform="translate(-235.183 -346.834)" fill="#fff"/>
    </g>
  </g>
</svg>
