<svg xmlns="http://www.w3.org/2000/svg" width="77" height="77" viewBox="0 0 77 77">
  <g id="Self-Directed_icon_2" data-name="Self-Directed icon 2" transform="translate(-1015 -2069)">
    <circle id="Ellipse_803" data-name="Ellipse 803" cx="38.5" cy="38.5" r="38.5" transform="translate(1015 2069)" fill="#4a8b8c"/>
    <g id="noun-assessment-4236233" transform="translate(893.637 2073.001)">
      <path id="Path_7468" data-name="Path 7468" d="M155.1,43.463h-7.872a1.464,1.464,0,0,1-1.451-1.451V17.869a1.464,1.464,0,0,1,1.451-1.451h11.874a.788.788,0,0,1,.791.791v4.441a1.764,1.764,0,0,0,1.759,1.759h4.4a.835.835,0,0,1,.836.836V35.327a11.442,11.442,0,0,1,2.419.924V23.586a3.684,3.684,0,0,0-1.143-2.726l-5.717-5.717A3.829,3.829,0,0,0,159.721,14H147.232a3.848,3.848,0,0,0-3.87,3.87V42.012a3.848,3.848,0,0,0,3.87,3.87H155.1a11.617,11.617,0,0,1-.088-1.231,10.886,10.886,0,0,1,.088-1.188Z" fill="#fff"/>
      <path id="Path_7469" data-name="Path 7469" d="M215.666,317a1.187,1.187,0,1,0,0,2.375H221.6a9.48,9.48,0,0,1,1.759-2.419h-7.7Z" transform="translate(-65.532 -279.171)" fill="#fff"/>
      <path id="Path_7470" data-name="Path 7470" d="M228.112,245.84H215.666a1.187,1.187,0,1,0,0,2.375h12.4a1.183,1.183,0,0,0,1.187-1.187,1.146,1.146,0,0,0-1.144-1.187Z" transform="translate(-65.532 -213.635)" fill="#fff"/>
      <path id="Path_7471" data-name="Path 7471" d="M228.112,174.72H215.666a1.187,1.187,0,1,0,0,2.375h12.4a1.183,1.183,0,0,0,1.187-1.187,1.147,1.147,0,0,0-1.144-1.187Z" transform="translate(-65.532 -148.1)" fill="#fff"/>
      <path id="Path_7472" data-name="Path 7472" d="M215.666,105.973h5.8a1.187,1.187,0,0,0,0-2.375h-5.8a1.187,1.187,0,1,0,0,2.375Z" transform="translate(-65.532 -82.563)" fill="#fff"/>
      <path id="Path_7473" data-name="Path 7473" d="M340.842,327.653l-4.486-3.958a7.228,7.228,0,1,0-6.025,3.21,7.372,7.372,0,0,0,4-1.187l3.958,4.486c.044.044.088.132.176.176a1.772,1.772,0,0,0,2.551-.176,1.851,1.851,0,0,0-.176-2.551Zm-6.86-8.4-1.275,1.144a.355.355,0,0,0-.132.4l.352,1.671a.664.664,0,0,1-.967.7l-1.451-.88a.4.4,0,0,0-.44,0l-1.451.836a.661.661,0,0,1-.967-.7l.352-1.671a.355.355,0,0,0-.132-.4l-1.231-1.143a.639.639,0,0,1,.352-1.1l1.671-.176c.132,0,.264-.132.352-.264l.7-1.539a.667.667,0,0,1,1.187,0l.7,1.539a.455.455,0,0,0,.352.264l1.671.176A.673.673,0,0,1,333.982,319.253Z" transform="translate(-165.642 -275.043)" fill="#fff"/>
    </g>
  </g>
</svg>
