<svg xmlns="http://www.w3.org/2000/svg" width="92" height="92" viewBox="0 0 92 92">
  <g id="Self-Directed_icon_1" data-name="Self-Directed icon 1" transform="translate(-425 -2069)">
    <g id="Group_3480" data-name="Group 3480" transform="translate(0 -21)">
      <circle id="Ellipse_802" data-name="Ellipse 802" cx="46" cy="46" r="46" transform="translate(425 2090)" fill="#4a8b8c"/>
    </g>
    <g id="noun-success-1667221" transform="translate(-16.766 2008.999)">
      <path id="Path_7467" data-name="Path 7467" d="M203.046,87.914a1.093,1.093,0,0,0-1.02-.69h-6.12V81.1a1.093,1.093,0,0,0-.69-1.02,1.117,1.117,0,0,0-1.2.234l-5.035,5.035a1.137,1.137,0,0,0-.319.786v6.767L183.8,97.773a20.367,20.367,0,1,0,1.562,1.562l4.866-4.855h6.767a1.113,1.113,0,0,0,.786-.34l5.035-5.035a1.1,1.1,0,0,0,.233-1.19Zm-16.382,24.934a16.432,16.432,0,1,1-5.62-12.324l-1.562,1.562a14.205,14.205,0,1,0,1.562,1.562l1.561-1.562a16.3,16.3,0,0,1,4.059,10.762Zm-16.382,1.944a1.947,1.947,0,0,0,1.955-1.944,1.975,1.975,0,0,0-.043-.351l1.7-1.689a4.175,4.175,0,1,1-1.561-1.572l-1.7,1.7a1.759,1.759,0,0,0-.351-.043,1.949,1.949,0,0,0,0,3.9Zm0-10.007a8.058,8.058,0,1,0,8.063,8.063,7.968,7.968,0,0,0-1.646-4.855l1.583-1.583a10.285,10.285,0,1,1-1.561-1.561l-1.583,1.583a7.966,7.966,0,0,0-4.855-1.647Z" transform="translate(308.753)" fill="#fff"/>
    </g>
  </g>
</svg>
